#!OML:ASF C:\Vicon Data\Big\jianyuan-13\jianyuan\Session 1\Capture.male.ASF
:FULLY-SPECIFIED
:DEGREES
1
root -7.733500 17.669700 -23.999400 8.881878 12.545136 2.899118
lowerback -9.699350 -1.910340 -4.035320 
upperback 2.281480 -2.013760 -0.357015 
thorax 8.004270 -1.163840 1.559370 
lowerneck -5.096670 -1.514680 2.993310 
upperneck -5.067850 -2.226060 -2.538180 
head -0.779542 -1.154020 -1.301740 
rclavicle 0.000000 0.000000 
rhumerus -44.198700 -20.405000 -76.519600 
rradius 27.992500 
rwrist 31.254800 
rhand -17.677900 -15.511000 
rfingers 0.000000 
rthumb 8.581230 -45.316600 
lclavicle 0.000000 0.000000 
lhumerus -22.219600 14.984700 89.303900 
lradius 32.887000 
lwrist -40.286900 
lhand -18.949300 0.983223 
lfingers 0.000000 
lthumb 7.354080 30.835400 
rfemur -30.854300 3.922100 14.836800 
rtibia 22.931800 
rfoot -4.297920 -13.466500 
rtoes -26.719800 
lfemur 7.792370 -6.228190 -26.074500 
ltibia 6.165020 
lfoot -13.589100 7.202080 
ltoes -36.993100 
2
root -7.747329 17.677902 -23.879541 8.818349 12.570367 2.729304
lowerback -9.702129 -1.865138 -3.870013 
upperback 2.339511 -1.980405 -0.262028 
thorax 8.063233 -1.143967 1.571608 
lowerneck -5.271512 -1.492467 2.938878 
upperneck -5.091511 -2.196399 -2.459205 
head -0.755285 -1.139646 -1.268367 
rclavicle 0.000000 0.000000 
rhumerus -43.939841 -20.433345 -76.490821 
rradius 27.942788 
rwrist 31.336746 
rhand -17.603949 -15.366252 
rfingers 0.000000 
rthumb 8.652521 -45.168867 
lclavicle 0.000000 0.000000 
lhumerus -22.532187 15.412418 89.038402 
lradius 32.586110 
lwrist -40.892692 
lhand -19.002316 1.066426 
lfingers 0.000000 
lthumb 7.302930 30.920393 
rfemur -30.709767 4.059132 15.179094 
rtibia 23.440281 
rfoot -4.544270 -13.458997 
rtoes -26.910885 
lfemur 8.108803 -6.228160 -25.777594 
ltibia 6.364954 
lfoot -13.232410 7.258642 
ltoes -37.631669 
3
root -7.755607 17.681686 -23.820756 8.826410 12.541084 2.789529
lowerback -9.695750 -1.928821 -3.933482 
upperback 2.344122 -2.061852 -0.208063 
thorax 8.074327 -1.188400 1.650622 
lowerneck -5.324206 -1.428571 2.744229 
upperneck -5.084909 -2.101775 -2.398858 
head -0.738590 -1.089548 -1.215324 
rclavicle 0.000000 0.000000 
rhumerus -43.785600 -20.232762 -76.444987 
rradius 27.916087 
rwrist 31.739953 
rhand -17.556015 -15.407239 
rfingers 0.000000 
rthumb 8.698820 -45.207981 
lclavicle 0.000000 0.000000 
lhumerus -22.720919 15.861139 88.875859 
lradius 32.439902 
lwrist -40.944564 
lhand -18.973792 1.091030 
lfingers 0.000000 
lthumb 7.330409 30.944082 
rfemur -30.627946 4.233881 15.160266 
rtibia 23.680684 
rfoot -4.786576 -13.484043 
rtoes -26.846243 
lfemur 8.136030 -6.208418 -25.780005 
ltibia 6.679400 
lfoot -13.164817 7.287287 
ltoes -38.000867 
4
root -7.762067 17.684656 -23.763564 8.875711 12.474542 2.698036
lowerback -9.728464 -1.900383 -3.767148 
upperback 2.318497 -2.046178 -0.181037 
thorax 8.058662 -1.172926 1.588143 
lowerneck -5.440422 -1.425518 2.766505 
upperneck -5.018948 -2.102094 -2.449884 
head -0.699828 -1.090562 -1.236462 
rclavicle 0.000000 0.000000 
rhumerus -43.641416 -20.171409 -76.464480 
rradius 27.843681 
rwrist 31.688559 
rhand -17.469983 -15.309224 
rfingers 0.000000 
rthumb 8.781811 -45.106502 
lclavicle 0.000000 0.000000 
lhumerus -22.984677 16.000374 88.714161 
lradius 32.391072 
lwrist -41.000840 
lhand -18.884244 1.198887 
lfingers 0.000000 
lthumb 7.416907 31.048872 
rfemur -30.618363 4.324498 15.309656 
rtibia 23.901793 
rfoot -4.990892 -13.324435 
rtoes -26.307811 
lfemur 8.053999 -6.136650 -25.631864 
ltibia 7.055866 
lfoot -13.074480 7.299811 
ltoes -38.574275 
5
root -7.770390 17.687389 -23.701669 8.829000 12.413881 2.678861
lowerback -9.703569 -1.830814 -3.756992 
upperback 2.352347 -1.953941 -0.194008 
thorax 8.074300 -1.127884 1.584433 
lowerneck -5.566790 -1.446442 2.915385 
upperneck -4.970106 -2.140548 -2.487782 
head -0.667185 -1.112869 -1.275721 
rclavicle 0.000000 0.000000 
rhumerus -43.538790 -20.188066 -76.557960 
rradius 27.918231 
rwrist 31.422099 
rhand -17.571816 -15.381819 
rfingers 0.000000 
rthumb 8.683537 -45.183199 
lclavicle 0.000000 0.000000 
lhumerus -23.351056 15.228928 88.663522 
lradius 32.667704 
lwrist -40.481144 
lhand -18.788060 1.573675 
lfingers 0.000000 
lthumb 7.509693 31.420338 
rfemur -30.455968 4.428976 15.421740 
rtibia 24.058283 
rfoot -5.105831 -13.211767 
rtoes -26.312273 
lfemur 8.034337 -6.070716 -25.554156 
ltibia 7.608679 
lfoot -13.096176 7.192830 
ltoes -38.412169 
6
root -7.776083 17.689381 -23.641273 8.817002 12.413338 2.652211
lowerback -9.695120 -1.814167 -3.708104 
upperback 2.344842 -1.940058 -0.173416 
thorax 8.059283 -1.119062 1.581547 
lowerneck -5.618698 -1.444979 2.960528 
upperneck -4.937572 -2.141816 -2.493480 
head -0.649168 -1.114503 -1.285905 
rclavicle 0.000000 0.000000 
rhumerus -43.482592 -20.193143 -76.529607 
rradius 27.889070 
rwrist 31.691603 
rhand -17.427088 -15.452318 
rfingers 0.000000 
rthumb 8.823244 -45.247865 
lclavicle 0.000000 0.000000 
lhumerus -23.587666 15.690802 88.451829 
lradius 32.374929 
lwrist -41.204741 
lhand -18.927368 1.425843 
lfingers 0.000000 
lthumb 7.375233 31.277270 
rfemur -30.345148 4.236188 15.646028 
rtibia 24.181964 
rfoot -4.956280 -12.930855 
rtoes -27.296778 
lfemur 7.985263 -6.065621 -25.467395 
ltibia 8.108420 
lfoot -13.024542 7.163919 
ltoes -38.995129 
